<svg xmlns="http://www.w3.org/2000/svg" viewBox="0 0 400 400" width="400" height="400">
	<style>
		tspan { white-space:pre }
		.shp0 { fill: #ffffff } 
	</style>
	<path id="Layer" class="shp0" d="M21.27 253.92C21.4 253.76 21.53 253.59 21.66 253.42C21.79 253.26 21.91 253.08 22.03 252.91C22.15 252.73 22.26 252.56 22.37 252.37C22.48 252.19 22.59 252.01 22.69 251.82C23.34 250.62 23.8 249.31 24.05 247.94C24.29 246.58 24.31 245.18 24.11 243.8C23.91 242.43 23.49 241.1 22.86 239.88C22.24 238.66 21.43 237.56 20.46 236.64C19.33 235.6 18.02 234.81 16.61 234.3C15.2 233.79 13.71 233.58 12.22 233.67C10.74 233.76 9.28 234.15 7.93 234.82C6.58 235.5 5.37 236.44 4.35 237.61C2.2 239.98 1.05 243.19 1.15 246.49C1.26 249.79 2.62 252.9 4.91 255.12C7.21 257.33 10.24 258.45 13.33 258.23C16.41 258 19.28 256.45 21.27 253.92L21.27 253.92Z" />
	<path id="Layer" class="shp0" d="M85.01 177.18C85.14 177.02 85.27 176.86 85.4 176.7C85.53 176.53 85.65 176.36 85.77 176.19C85.88 176.01 86 175.84 86.11 175.66C86.22 175.48 86.32 175.3 86.42 175.11C89.46 169.49 87.84 162.3 82.75 158.77C77.65 155.23 70.86 156.58 67.28 161.83C63.71 167.08 64.61 174.41 69.33 178.49C74.05 182.58 80.94 182.01 85.01 177.18L85.01 177.18Z" />
	<path id="Layer" class="shp0" d="M139.26 139.81C136.18 143.47 135.47 148.75 137.45 153.2C139.44 157.64 143.74 160.37 148.34 160.11C152.94 159.85 156.94 156.65 158.47 152C160.01 147.36 158.77 142.18 155.35 138.89C154.22 137.86 152.92 137.06 151.51 136.55C150.1 136.03 148.62 135.81 147.13 135.9C145.65 135.98 144.19 136.37 142.84 137.04C141.5 137.71 140.28 138.65 139.26 139.81Z" />
	<path id="Layer" class="shp0" d="M234.25 123.72C234.39 123.56 234.52 123.39 234.64 123.23C234.77 123.06 234.89 122.89 235.01 122.72C235.13 122.55 235.24 122.37 235.35 122.19C235.46 122.01 235.56 121.83 235.66 121.64C238.7 116.02 237.09 108.84 231.99 105.3C226.89 101.76 220.1 103.11 216.53 108.36C212.95 113.62 213.85 120.94 218.58 125.03C223.3 129.12 230.19 128.54 234.25 123.72Z" />
	<path id="Layer" class="shp0" d="M317.38 23.23C318.5 24.29 319.8 25.11 321.21 25.64C322.63 26.17 324.12 26.39 325.62 26.3C327.11 26.21 328.58 25.81 329.93 25.12C331.28 24.43 332.49 23.46 333.49 22.27C333.61 22.12 333.73 21.98 333.85 21.82C333.97 21.67 334.08 21.52 334.19 21.36C334.3 21.2 334.41 21.04 334.51 20.88C334.61 20.71 334.7 20.55 334.8 20.38C335.44 19.19 335.89 17.89 336.13 16.53C336.36 15.18 336.37 13.79 336.16 12.44C335.95 11.08 335.52 9.77 334.89 8.57C334.26 7.37 333.43 6.3 332.46 5.4C328.14 0.26 320.67 1.14 316.48 6.13C315.48 7.32 314.71 8.7 314.22 10.2C313.73 11.7 313.52 13.29 313.6 14.88C313.68 16.47 314.06 18.03 314.71 19.46C315.36 20.89 316.27 22.17 317.38 23.23L317.38 23.23Z" />
	<path id="Layer" class="shp0" d="M297.97 167.07C298.71 167.03 299.45 166.91 300.18 166.72C300.9 166.52 301.6 166.25 302.28 165.91C302.95 165.56 303.59 165.15 304.19 164.67C304.78 164.19 305.34 163.65 305.83 163.06C305.97 162.9 306.1 162.74 306.22 162.57C306.35 162.4 306.47 162.23 306.59 162.06C306.71 161.89 306.82 161.71 306.93 161.53C307.04 161.35 307.14 161.17 307.24 160.98C309.84 156.15 309.05 150.05 305.31 146.17C301.57 142.28 295.84 141.61 291.39 144.53C286.95 147.44 284.93 153.21 286.48 158.53C288.03 163.85 292.76 167.37 297.97 167.07Z" />
	<path id="Layer" class="shp0" d="M379.96 67.64C381.07 68.7 382.37 69.53 383.78 70.06C385.19 70.59 386.69 70.82 388.18 70.74C389.67 70.65 391.14 70.25 392.49 69.56C393.83 68.88 395.04 67.91 396.04 66.72C396.18 66.56 396.31 66.4 396.43 66.23C396.56 66.07 396.68 65.9 396.8 65.72C396.92 65.55 397.03 65.37 397.14 65.2C397.25 65.02 397.35 64.83 397.45 64.65C399.64 60.58 399.45 55.53 396.95 51.67C394.46 47.81 390.11 45.82 385.78 46.56C381.44 47.3 377.89 50.63 376.65 55.13C375.41 59.63 376.69 64.5 379.96 67.63L379.96 67.64Z" />
	<path id="Layer" class="shp0" d="M28.82 234.4L65.05 189.06C65.1 189 65.14 188.94 65.19 188.88C65.23 188.82 65.27 188.76 65.31 188.7C65.36 188.63 65.4 188.57 65.43 188.5C65.47 188.44 65.51 188.37 65.54 188.3C66.04 187.34 66.2 186.2 65.99 185.11C65.79 184.02 65.23 183.06 64.43 182.41C63.63 181.75 62.64 181.46 61.66 181.57C60.67 181.69 59.76 182.22 59.1 183.05L22.87 228.38C22.16 229.27 21.79 230.44 21.85 231.63C21.91 232.82 22.38 233.94 23.17 234.74C23.96 235.54 25 235.95 26.06 235.89C27.12 235.82 28.11 235.29 28.82 234.4L28.82 234.4Z" />
	<path id="Layer" class="shp0" d="M242.85 100.29L313.35 29.28C314.12 28.48 314.57 27.37 314.62 26.19C314.67 25.01 314.3 23.86 313.61 22.98C312.91 22.11 311.93 21.57 310.88 21.5C309.84 21.42 308.81 21.81 308.01 22.58L237.51 93.59C236.75 94.39 236.29 95.5 236.24 96.68C236.19 97.86 236.56 99.01 237.26 99.89C237.96 100.77 238.93 101.3 239.98 101.38C241.02 101.45 242.06 101.06 242.85 100.29L242.85 100.29Z" />
	<path id="Layer" class="shp0" d="M372.68 72.43L309.02 134.89C308.21 135.67 307.7 136.78 307.63 137.98C307.55 139.18 307.9 140.36 308.6 141.27C309.3 142.17 310.3 142.72 311.36 142.8C312.43 142.88 313.48 142.47 314.28 141.67L377.94 79.21C378.72 78.42 379.2 77.32 379.27 76.14C379.33 74.95 378.98 73.79 378.29 72.89C377.6 72 376.62 71.45 375.57 71.36C374.52 71.28 373.48 71.66 372.68 72.43Z" />
	<path id="Layer" class="shp0" d="M129.45 158.5C130.47 158.2 131.35 157.46 131.89 156.45C132.43 155.43 132.59 154.21 132.34 153.06C132.08 151.9 131.44 150.91 130.54 150.29C129.63 149.68 128.55 149.48 127.53 149.76L93.94 159.1C92.9 159.38 92 160.11 91.45 161.14C90.89 162.16 90.73 163.39 90.98 164.56C91.24 165.72 91.9 166.72 92.81 167.34C93.73 167.95 94.82 168.13 95.86 167.84L129.45 158.5Z" />
	<path id="Layer" class="shp0" d="M169.62 148.44L206.86 131.52C207.86 131.09 208.66 130.22 209.08 129.12C209.5 128.01 209.52 126.76 209.12 125.65C208.72 124.53 207.94 123.64 206.95 123.18C205.96 122.71 204.85 122.71 203.86 123.18L166.62 140.1C165.64 140.55 164.86 141.42 164.44 142.51C164.03 143.61 164.02 144.85 164.42 145.95C164.81 147.06 165.59 147.94 166.56 148.41C167.53 148.88 168.63 148.89 169.62 148.44L169.62 148.44Z" />
	<path id="Layer" class="shp0" d="M282.12 147.39C282.16 147.32 282.21 147.23 282.24 147.14C282.48 146.62 282.62 146.04 282.65 145.45C282.69 144.86 282.62 144.27 282.45 143.71C282.29 143.15 282.02 142.63 281.68 142.19C281.33 141.74 280.91 141.38 280.44 141.11L246.23 121.98C245.28 121.43 244.17 121.34 243.16 121.71C242.14 122.09 241.31 122.91 240.83 123.98C240.35 125.06 240.28 126.31 240.63 127.44C240.97 128.58 241.71 129.52 242.67 130.04L276.88 149.17C277.33 149.42 277.82 149.58 278.33 149.63C278.83 149.67 279.33 149.61 279.82 149.45C280.3 149.29 280.75 149.02 281.14 148.67C281.54 148.32 281.87 147.89 282.12 147.39L282.12 147.39Z" />
	<path id="Layer" class="shp0" d="M377.16 43.96C377.2 43.87 377.25 43.78 377.29 43.68C377.52 43.15 377.65 42.57 377.69 41.98C377.72 41.39 377.65 40.8 377.48 40.24C377.3 39.69 377.04 39.17 376.69 38.73C376.34 38.28 375.92 37.92 375.45 37.66L342 19.3C341.04 18.78 339.94 18.7 338.94 19.09C337.94 19.48 337.11 20.3 336.65 21.38C336.18 22.45 336.12 23.69 336.46 24.81C336.81 25.94 337.54 26.87 338.49 27.39L371.94 45.76C372.39 46 372.88 46.15 373.38 46.2C373.88 46.24 374.38 46.18 374.86 46.01C375.34 45.85 375.79 45.58 376.18 45.23C376.57 44.88 376.9 44.45 377.16 43.96L377.16 43.96Z" />
	<g id="Folder 39">
		<path id="ANJ " fill="#ffffff" d="M52.02 350.66Q51.19 351.14 50.2 350.88Q49.22 350.61 48.74 349.78L48.29 348.52L35.24 266.4Q34.75 263.63 37.25 262.19L43.9 258.35Q46.39 256.91 48.54 258.72L113.14 311.08L114 312.1Q114.48 312.93 114.12 313.98Q113.85 314.96 113.02 315.44L108.14 318.26Q107.1 318.86 106.07 318.76Q105.09 318.5 104.52 317.99L90.06 306.39L55.66 326.25L58.59 344.51Q58.77 346.76 57.01 347.78L52.02 350.66ZM46.39 270.36L53.69 315.88L82.17 299.44L46.39 270.36ZM133.91 303.38Q132.87 303.98 131.89 303.72Q130.84 303.35 130.24 302.31L91.06 234.45Q90.4 233.31 90.67 232.32Q90.87 231.23 91.91 230.63L96.48 227.99Q97.52 227.39 98.28 227.51Q99.04 227.63 99.92 227.95L165.7 261.47L135.34 208.89Q134.68 207.75 134.94 206.76Q135.25 205.61 136.29 205.01L140.96 202.31Q142.11 201.65 143.15 202.02Q144.24 202.23 144.9 203.37L184.02 271.13Q184.62 272.17 184.31 273.31Q184.11 274.4 183.07 275L178.39 277.7Q176.62 278.72 175.06 277.69L109.58 244.68L139.7 296.85Q140.3 297.89 139.99 299.04Q139.73 300.02 138.69 300.62L133.91 303.38ZM230.95 248.74Q219.62 255.28 208.96 254.09Q198.34 252.74 191.69 242.17Q191.15 241.24 191.41 240.25Q191.61 239.17 192.55 238.63L197.85 235.57Q200.14 234.25 201.83 236.46Q206.35 242.85 212.78 243.43Q219.22 244.01 226.07 240.05Q233.97 235.49 235.23 227.84Q236.6 220.12 231.5 211.29L210.02 174.08L172.92 195.5Q171.88 196.1 170.79 195.9Q169.75 195.53 169.15 194.49L166.87 190.54Q166.27 189.51 166.53 188.52Q166.84 187.37 167.88 186.77L212.46 161.03Q213.6 160.37 214.65 160.74Q215.74 160.95 216.4 162.09L241.6 205.74Q246.4 214.05 246.77 222.15Q247.26 230.18 243.21 237.09Q239.16 244 230.95 248.74Z" />
		<path id="BOL " fill="#ffffff" d="M188.79 397.96Q187.75 398.56 186.77 398.3Q185.73 397.93 185.13 396.89L145.95 329.03Q145.29 327.89 145.55 326.9Q145.75 325.81 146.79 325.21L175.16 308.83Q186.18 302.47 194.85 304.53Q203.52 306.59 208.44 315.12Q211.8 320.94 211.38 326.45Q210.9 331.85 208.28 335.72Q214.01 335.32 219.67 338.15Q225.32 340.98 228.74 346.91Q232.1 352.73 232.16 359.07Q232.32 365.35 228.74 371.15Q225.17 376.96 218 381.1L188.79 397.96ZM172.1 351.76L191.43 340.6Q198.18 336.7 199.97 331.65Q201.71 326.49 198.53 320.98Q195.41 315.58 190.25 314.81Q185.2 313.98 178.35 317.94L159.02 329.1L172.1 351.76ZM191.54 385.43L211.9 373.67Q218.56 369.83 220.26 364.14Q222 358.28 218.76 352.67Q215.46 346.95 209.58 345.64Q203.8 344.27 197.14 348.11L176.78 359.87L191.54 385.43ZM287.6 342.3Q274.09 350.1 262.63 347.29Q251.11 344.38 242.42 330.28Q240.51 327.22 237.21 321.51Q233.91 315.79 232.28 312.72Q224.53 298.34 227.92 286.69Q231.41 274.98 244.4 267.48Q257.39 259.98 269.18 262.87Q280.96 265.76 289.54 279.66Q293.23 285.57 294.79 288.27Q296.29 290.87 299.68 297.22Q307.54 311.8 304.31 323.23Q301.11 334.5 287.6 342.3ZM282.62 333.67Q290.93 328.87 293.04 321.01Q295.09 313.03 289.51 302.4Q286.11 296.05 284.91 293.97Q283.59 291.68 279.91 285.77Q273.49 275.62 265.56 273.41Q257.63 271.2 249.32 276Q241.01 280.8 238.85 288.83Q236.81 296.8 242.49 307.37Q244.13 310.45 247.19 315.75Q250.19 320.94 252.09 324Q258.41 334.21 266.33 336.43Q274.2 338.53 282.62 333.67ZM338.65 311.44Q337.61 312.04 336.63 311.78Q335.58 311.41 334.98 310.37L295.74 242.4Q295.14 241.37 295.41 240.38Q295.61 239.29 296.65 238.69L301.85 235.69Q302.89 235.09 303.93 235.46Q304.91 235.73 305.51 236.76L341.09 298.39L375.8 278.35Q376.95 277.69 377.99 278.06Q379.08 278.26 379.68 279.3L381.96 283.25Q382.56 284.29 382.25 285.44Q381.88 286.48 380.84 287.08L338.65 311.44Z" />
	</g>
</svg>